<svg width="128" height="128" viewBox="0 0 128 128" fill="none" xmlns="http://www.w3.org/2000/svg">
  <defs>
    <linearGradient id="zipBg" x1="20" y1="10" x2="104" y2="116" gradientUnits="userSpaceOnUse">
      <stop stop-color="#1B1015"/>
      <stop offset="1" stop-color="#0C0D12"/>
    </linearGradient>
    <linearGradient id="zipAccent" x1="30" y1="28" x2="96" y2="100" gradientUnits="userSpaceOnUse">
      <stop stop-color="#FF5973"/>
      <stop offset="1" stop-color="#FF8B72"/>
    </linearGradient>
  </defs>
  <rect x="12" y="10" width="104" height="108" rx="22" fill="url(#zipBg)" stroke="#FF5973" stroke-opacity="0.6" stroke-width="2"/>
  <path d="M44 28V44H84V28H44ZM36 44H92L100 52V92C100 97.5228 95.5228 102 90 102H38C32.4772 102 28 97.5228 28 92V52L36 44Z" fill="url(#zipAccent)" fill-opacity="0.12" stroke="url(#zipAccent)" stroke-width="4"/>
  <path d="M52 60H76M52 72H76M52 84H68" stroke="#FDE5E8" stroke-width="5" stroke-linecap="round"/>
  <path d="M64 26V44" stroke="#FF5973" stroke-width="4" stroke-linecap="round"/>
  <path d="M56 52H72V60H56V52Z" fill="#FF5973"/>
</svg>
